<?xml version="1.0" ?><!DOCTYPE svg  PUBLIC '-//W3C//DTD SVG 1.1//EN'  'http://www.w3.org/Graphics/SVG/1.1/DTD/svg11.dtd'><svg enable-background="new 0 0 256 256" id="Layer_1" version="1.1" viewBox="0 0 256 256" xml:space="preserve" xmlns="http://www.w3.org/2000/svg" xmlns:xlink="http://www.w3.org/1999/xlink"><g><g><circle cx="128" cy="128" fill="#A4DCFF" r="128"/><path d="M256,128c0,10.9-1.4,21.6-4,31.7c-10.2,40-39.2,72.5-77.1,87.4c-14.5,5.7-30.4,8.9-46.9,8.9    C57.3,256,0,198.7,0,128C0,57.3,57.3,0,128,0C198.7,0,256,57.3,256,128z" fill="#A4DCFF"/><path d="M255.5,116.4c-0.8-8.8-2.5-17.3-4.9-25.4c-2.5-2.1-5.7-3.4-9.2-3.4c-2.5,0-4.7,0.6-6.8,1.7    c-1.9-8.6-9.7-15.1-18.9-15.1c-5.1,0-9.8,2-13.2,5.2c-1.9-8.6-9.7-15.1-18.9-15.1c-9.6,0-17.6,7-19.1,16.2    c-1.9-0.9-3.9-1.3-6.1-1.3c-4.8,0-9.1,2.4-11.8,6c-2.6-4-7.1-6.6-12.2-6.6c-6.7,0-12.3,4.5-14,10.7c-3-3-7.3-4.9-11.9-4.9    c-3.6,0-7,1.1-9.7,3.1c-2-4.8-6.7-8.2-12.2-8.2c-3.4,0-6.4,1.3-8.8,3.4c-3.2-4.8-8.7-7.9-14.9-7.9c-5.6,0-10.6,2.6-13.9,6.7    c-2.6-3.6-6.9-5.9-11.7-5.9c-8,0-14.5,6.5-14.5,14.5c0,0.1,0,0.3,0,0.4c-1.6-0.4-3.2-0.6-4.8-0.6c-5.3,0-10.1,1.9-13.8,5.1    C1.5,105.4,0,116.5,0,128c0,70.7,57.3,128,128,128c66.8,0,121.6-51.2,127.5-116.4V116.4z" fill="#FFFFFF" opacity="0.4"/><path d="M255.5,116.4v23.2c-3.2,36.1-21.5,67.9-48.4,89.1c-1,0.8-2,1.6-3.1,2.4    c-21.2,15.7-47.5,25-75.9,25C57.3,256,0,198.7,0,128c0-11.5,1.5-22.7,4.4-33.2c3.7-3.2,8.6-5.1,13.8-5.1c1.7,0,3.3,0.2,4.9,0.6    c0-0.1,0-0.3,0-0.4c0-8,6.5-14.4,14.4-14.4c4.8,0,9,2.3,11.7,5.9c3.3-4.1,8.3-6.7,13.9-6.7c6.2,0,11.7,3.2,14.9,7.9    c2.3-2.1,5.4-3.4,8.8-3.4c5.5,0,10.2,3.4,12.2,8.2c2.7-1.9,6.1-3.1,9.7-3.1c4.6,0,8.8,1.9,11.9,4.9c1.6-6.2,7.3-10.7,14-10.7    c5.1,0,9.6,2.7,12.2,6.6c2.6-3.7,6.9-6.1,11.8-6.1c2.2,0,4.2,0.5,6.1,1.3c1.5-9.2,9.5-16.2,19.1-16.2c9.2,0,17,6.5,18.9,15.1    c3.5-3.2,8.1-5.2,13.2-5.2c9.2,0,16.9,6.5,18.9,15.1c2-1.1,4.3-1.7,6.8-1.7c3.5,0,6.8,1.3,9.2,3.4    C253,99.2,254.7,107.7,255.5,116.4z" fill="#FFFFFF" opacity="0.4"/><path d="M128,256c70.7,0,128-57.3,128-128c0-0.6,0-1.2,0-1.9c-3.9-3-8.8-4.9-14.1-4.9    c-1.8,0-3.5,0.2-5.2,0.6c0-0.1,0-0.3,0-0.4c0-8.6-6.9-15.5-15.5-15.5c-5.1,0-9.7,2.5-12.5,6.3c-3.5-4.4-8.9-7.1-14.9-7.1    c-6.6,0-12.5,3.4-15.9,8.5c-2.5-2.2-5.8-3.6-9.4-3.6c-5.9,0-11,3.6-13.1,8.8c-2.9-2.1-6.5-3.3-10.4-3.3c-5,0-9.5,2-12.8,5.3    c-1.7-6.6-7.8-11.5-15-11.5c-5.5,0-10.3,2.8-13,7.1c-2.8-3.9-7.4-6.5-12.6-6.5c-2.3,0-4.6,0.5-6.5,1.4    c-1.6-9.8-10.2-17.3-20.5-17.3c-9.9,0-18.2,6.9-20.3,16.2c-3.7-3.5-8.7-5.6-14.2-5.6c-9.9,0-18.2,6.9-20.2,16.2    c-2.2-1.2-4.6-1.9-7.3-1.9c-0.8,0-1.6,0.1-2.3,0.2C0.1,122.1,0,125,0,128C0,198.7,57.3,256,128,256z" fill="#FFFFFF" opacity="0.4"/><path d="M128,256c70.7,0,128-57.3,128-128c0-0.6,0-1.2,0-1.9c-3.9-3-8.8-4.9-14.1-4.9    c-1.8,0-3.5,0.2-5.2,0.6c0-0.1,0-0.3,0-0.4c0-8.6-6.9-15.5-15.5-15.5c-5.1,0-9.7,2.5-12.5,6.3c-3.5-4.4-8.9-7.1-14.9-7.1    c-6.6,0-12.5,3.4-15.9,8.5c-2.5-2.2-5.8-3.6-9.4-3.6c-5.9,0-11,3.6-13.1,8.8c-2.9-2.1-6.5-3.3-10.4-3.3c-5,0-9.5,2-12.8,5.3    c-1.7-6.6-7.8-11.5-15-11.5c-5.5,0-10.3,2.8-13,7.1c-2.8-3.9-7.4-6.5-12.6-6.5c-2.3,0-4.6,0.5-6.5,1.4    c-1.6-9.8-10.2-17.3-20.5-17.3c-9.9,0-18.2,6.9-20.3,16.2c-3.7-3.5-8.7-5.6-14.2-5.6c-9.9,0-18.2,6.9-20.2,16.2    c-2.2-1.2-4.6-1.9-7.3-1.9c-0.8,0-1.6,0.1-2.3,0.2C0.1,122.1,0,125,0,128C0,198.7,57.3,256,128,256z" fill="#FFFFFF" opacity="0.4"/><path d="M256,128c0,59.5-40.6,109.5-95.6,123.9c-2.8,0.7-5.7,1.4-8.6,1.9c-3.5,0.7-7.1,1.2-10.7,1.6    c-2.8,0.3-5.7,0.5-8.6,0.6c-1.5,0.1-3,0.1-4.5,0.1c-2.1,0-4.1-0.1-6.2-0.1c-2.9-0.1-5.7-0.4-8.6-0.7c-3.6-0.4-7.2-1-10.7-1.7    c-2.9-0.6-5.7-1.3-8.6-2c-3.6-1-7.2-2.2-10.7-3.5c-2.7-1-5.3-2.1-7.9-3.3C30.9,224.5,0,179.9,0,128c0-3,0.1-5.9,0.3-8.8    c0.8-0.1,1.5-0.2,2.3-0.2c2.6,0,5.1,0.7,7.2,1.9c2.1-9.2,10.4-16.2,20.2-16.2c5.5,0,10.5,2.1,14.2,5.6    c2.1-9.3,10.4-16.2,20.3-16.2c10.3,0,18.8,7.5,20.5,17.3c2-0.9,4.2-1.4,6.5-1.4c5.2,0,9.8,2.6,12.6,6.5c2.8-4.3,7.6-7.1,13-7.1    c7.2,0,13.2,4.9,15,11.5c3.3-3.3,7.8-5.3,12.8-5.3c3.9,0,7.5,1.2,10.4,3.3c2.1-5.2,7.2-8.8,13.1-8.8c3.6,0,6.9,1.4,9.4,3.6    c3.4-5.1,9.3-8.5,15.9-8.5c6,0,11.4,2.8,14.9,7.1c2.8-3.8,7.4-6.3,12.5-6.3c8.6,0,15.5,6.9,15.5,15.5c0,0.1,0,0.3,0,0.4    c1.7-0.4,3.4-0.6,5.2-0.6c5.3,0,10.2,1.8,14.1,4.9C256,126.8,256,127.4,256,128z" fill="#FFFFFF" opacity="0.4"/><path d="M77.8,53.1c0.3,0.7,0.5,1.4,0.5,2.2c0,2.7-2.2,4.9-4.9,4.9c-1.1,0-2-0.3-2.8-0.9c-1.4,1.5-3.4,2.4-5.6,2.4    c-3,0-5.6-1.7-6.9-4.1c-1.4,1.2-3.1,1.9-5.1,1.9c-4.3,0-7.8-3.5-7.8-7.8c0-3.6,2.5-6.7,5.8-7.6c-0.1-0.2-0.1-0.5-0.1-0.8    c0-2.2,1.8-4,4-4c0.4,0,0.9,0.1,1.3,0.2c1.3-2.6,4-4.5,7.1-4.5c3.2,0,5.9,1.9,7.2,4.6c0.8-0.2,1.6-0.4,2.4-0.4    c4.3,0,7.8,3.5,7.8,7.8C80.6,49.5,79.5,51.6,77.8,53.1z" fill="#FFFFFF"/><path d="M187.6,39.2c0.3,0.7,0.5,1.4,0.5,2.2c0,2.7-2.2,4.9-4.9,4.9c-1.1,0-2-0.3-2.8-0.9    c-1.4,1.5-3.4,2.4-5.6,2.4c-3,0-5.6-1.7-6.9-4.1c-1.4,1.2-3.1,1.9-5.1,1.9c-4.3,0-7.8-3.5-7.8-7.8c0-3.6,2.5-6.7,5.8-7.6    c-0.1-0.2-0.1-0.5-0.1-0.8c0-2.2,1.8-4,4-4c0.4,0,0.9,0.1,1.3,0.2c1.3-2.6,4-4.5,7.1-4.5c3.2,0,5.9,1.9,7.2,4.6    c0.8-0.2,1.6-0.4,2.4-0.4c4.3,0,7.8,3.5,7.8,7.8C190.4,35.6,189.3,37.7,187.6,39.2z" fill="#FFFFFF"/><path d="M252,159.7c-10.2,40-39.2,72.5-77.1,87.4v-87.4H252z" fill="#EFB395"/><path d="M174.9,247.1c36-14.2,63.9-44.2,75.4-81.4h-75.4V247.1z" fill="#C17E5D"/><path d="M250.4,165.5h-75.5v1.2h2.3v1.2h1.5v-1.2h2.5v1.2h1.5v-1.2h2.5v1.2h1.5v-1.2h2.5v1.2h1.5v-1.2h2.5v1.2h1.5    v-1.2h2.5v1.2h1.5v-1.2h2.5v1.2h1.5v-1.2h2.5v1.2h1.5v-1.2h2.5v1.2h1.5v-1.2h2.5v1.2h1.5v-1.2h2.5v1.2h1.5v-1.2h2.5v1.2h1.5v-1.2    h2.5v1.2h1.5v-1.2h2.5v1.2h1.5v-1.2h2.5v1.2h1.5v-1.2h2.5v1.2h1.5v-1.2h2.5v1.2h1.5v-1.2h2.5v1.2h1.5v-1.2h2.5v0.5    C250.1,166.6,250.2,166,250.4,165.5z" fill="#DE9F75"/><path d="M220.4,216.6h-45.5v1.9h43.6C219.2,217.8,219.8,217.2,220.4,216.6z" fill="#DE9F75"/><path d="M247,175.1c-0.1,0.3-0.3,0.6-0.4,1v-1H247z" fill="#DE9F75"/><path d="M224.8,211.7c4.8-5.5,9.1-11.4,12.8-17.7v-18.9h-12.8V211.7z" fill="#DE9F75"/><rect fill="#7C6B7B" height="3.2" width="4.7" x="225.8" y="177.1"/><rect fill="#7C6B7B" height="6.6" width="4.7" x="225.8" y="181.4"/><rect fill="#7C6B7B" height="3.2" width="4.7" x="232.1" y="177.1"/><rect fill="#7C6B7B" height="6.6" width="4.7" x="232.1" y="181.4"/><path d="M236.8,194.8v0.7c-0.5,0.8-1,1.7-1.6,2.5h-9.4v-3.2H236.8z" fill="#7C6B7B"/><path d="M228.7,207c-1,1.2-1.9,2.4-2.9,3.6V207H228.7z" fill="#7C6B7B"/><path d="M230.5,199.1v5.6c-0.2,0.3-0.5,0.6-0.7,0.9h-4v-6.6H230.5z" fill="#7C6B7B"/><path d="M234.4,199.1c-0.8,1.2-1.6,2.3-2.4,3.4v-3.4H234.4z" fill="#7C6B7B"/><path d="M238.2,193.1c-0.2,0.3-0.3,0.6-0.5,0.8h-14.8l8.4-4.9L238.2,193.1z" fill="#EFB395"/><rect fill="#DE9F75" height="41.4" width="12.8" x="203" y="175.1"/><rect fill="#7C6B7B" height="3.2" width="4.7" x="203.9" y="177.1"/><rect fill="#7C6B7B" height="6.6" width="4.7" x="203.9" y="181.4"/><rect fill="#7C6B7B" height="3.2" width="4.7" x="210.3" y="177.1"/><rect fill="#7C6B7B" height="6.6" width="4.7" x="210.3" y="181.4"/><rect fill="#7C6B7B" height="3.2" width="11" x="203.9" y="194.8"/><rect fill="#7C6B7B" height="6.6" width="4.7" x="203.9" y="207"/><rect fill="#7C6B7B" height="6.6" width="4.7" x="210.3" y="207"/><rect fill="#7C6B7B" height="6.6" width="4.7" x="203.9" y="199.1"/><rect fill="#7C6B7B" height="6.6" width="4.7" x="210.3" y="199.1"/><polygon fill="#EFB395" points="217.8,194 209.5,189.1 201.1,194   "/><rect fill="#DE9F75" height="41.4" width="12.8" x="181.2" y="175.1"/><rect fill="#7C6B7B" height="3.2" width="4.7" x="182.1" y="177.1"/><rect fill="#7C6B7B" height="6.6" width="4.7" x="182.1" y="181.4"/><rect fill="#7C6B7B" height="3.2" width="4.7" x="188.5" y="177.1"/><rect fill="#7C6B7B" height="6.6" width="4.7" x="188.5" y="181.4"/><rect fill="#7C6B7B" height="3.2" width="11" x="182.1" y="194.8"/><rect fill="#7C6B7B" height="6.6" width="4.7" x="182.1" y="207"/><rect fill="#7C6B7B" height="6.6" width="4.7" x="188.5" y="207"/><rect fill="#7C6B7B" height="6.6" width="4.7" x="182.1" y="199.1"/><rect fill="#7C6B7B" height="6.6" width="4.7" x="188.5" y="199.1"/><polygon fill="#EFB395" points="196,194 187.6,189.1 179.3,194   "/><path d="M209.3,226.8c-2,1.7-4.1,3.3-6.3,4.9v-4.9H209.3z" fill="#DE9F75"/><path d="M207.1,228.7c-1,0.8-2,1.6-3.1,2.4v-2.4H207.1z" fill="#7C6B7B"/><path d="M181.2,244.4c4.4-2,8.7-4.3,12.8-6.8v-10.8h-12.8V244.4z" fill="#DE9F75"/><rect fill="#7C6B7B" height="3.2" width="11" x="182.1" y="228.7"/><path d="M186.8,241.7v-0.8h-4.7v3.1C183.7,243.3,185.3,242.5,186.8,241.7z" fill="#7C6B7B"/><rect fill="#7C6B7B" height="6.6" width="4.7" x="182.1" y="233"/><path d="M193.2,233h-4.7v6.6h2.4c0.8-0.4,1.6-0.9,2.3-1.3V233z" fill="#7C6B7B"/><path d="M174.9,159.7v87.4c20.9-8.3,39.2-21.9,53-39.2l-48.2-48.2H174.9z" opacity="0.15"/><path d="M75.2,244.7c1.9,0.9,3.9,1.7,5.8,2.4v-87.4H4C13.6,197.6,40.2,228.8,75.2,244.7z" fill="#EFB395"/><path d="M75.2,244.7c1.9,0.9,3.9,1.7,5.8,2.4v-81.4H5.7C16.5,200.9,42.1,229.6,75.2,244.7z" fill="#C17E5D"/><path d="M6.1,167.1v-0.4h2.5v1.2h1.5v-1.2h2.5v1.2h1.5v-1.2h2.5v1.2h1.5v-1.2h2.5v1.2h1.5v-1.2h2.5v1.2h1.5v-1.2    h2.5v1.2h1.5v-1.2h2.5v1.2h1.5v-1.2h2.5v1.2h1.5v-1.2h2.5v1.2h1.5v-1.2H45v1.2h1.5v-1.2H49v1.2h1.5v-1.2h2.5v1.2h1.5v-1.2h2.5v1.2    h1.5v-1.2h2.5v1.2h1.5v-1.2h2.5v1.2h1.5v-1.2h2.5v1.2h1.5v-1.2h2.5v1.2h1.5v-1.2h2.5v1.2h1.5v-1.2h2.3v-1.2H5.6    C5.7,166,5.9,166.6,6.1,167.1z" fill="#DE9F75"/><path d="M37.4,218.4h43.6v-1.9H35.6C36.2,217.2,36.8,217.8,37.4,218.4z" fill="#DE9F75"/><path d="M9.3,176.1v-0.9H9C9.1,175.4,9.2,175.7,9.3,176.1z" fill="#DE9F75"/><path d="M18.3,194c3.8,6.3,8.1,12.2,12.8,17.7v-36.5H18.3V194z" fill="#DE9F75"/><rect fill="#7C6B7B" height="3.2" width="4.7" x="25.5" y="177.1"/><rect fill="#7C6B7B" height="6.6" width="4.7" x="25.5" y="181.4"/><rect fill="#7C6B7B" height="3.2" width="4.7" x="19.2" y="177.1"/><rect fill="#7C6B7B" height="6.6" width="4.7" x="19.2" y="181.4"/><path d="M19.2,195.5c0.5,0.8,1,1.7,1.6,2.5h9.4v-3.2h-11V195.5z" fill="#7C6B7B"/><path d="M30.2,210.6V207h-2.9C28.3,208.2,29.2,209.4,30.2,210.6z" fill="#7C6B7B"/><path d="M25.5,204.7c0.2,0.3,0.5,0.7,0.7,1h4v-6.6h-4.7V204.7z" fill="#7C6B7B"/><path d="M23.9,202.5v-3.4h-2.4C22.3,200.3,23.1,201.4,23.9,202.5z" fill="#7C6B7B"/><path d="M17.8,193.1c0.2,0.3,0.3,0.6,0.5,0.9h14.8l-8.4-4.9L17.8,193.1z" fill="#EFB395"/><rect fill="#DE9F75" height="41.4" width="12.8" x="40.1" y="175.1"/><rect fill="#7C6B7B" height="3.2" width="4.7" x="47.3" y="177.1"/><rect fill="#7C6B7B" height="6.6" width="4.7" x="47.3" y="181.4"/><rect fill="#7C6B7B" height="3.2" width="4.7" x="41" y="177.1"/><rect fill="#7C6B7B" height="6.6" width="4.7" x="41" y="181.4"/><rect fill="#7C6B7B" height="3.2" width="11" x="41" y="194.8"/><rect fill="#7C6B7B" height="6.6" width="4.7" x="47.3" y="207"/><rect fill="#7C6B7B" height="6.6" width="4.7" x="41" y="207"/><rect fill="#7C6B7B" height="6.6" width="4.7" x="47.3" y="199.1"/><rect fill="#7C6B7B" height="6.6" width="4.7" x="41" y="199.1"/><polygon fill="#EFB395" points="38.2,194 46.5,189.1 54.9,194   "/><rect fill="#DE9F75" height="41.4" width="12.8" x="61.9" y="175.1"/><rect fill="#7C6B7B" height="3.2" width="4.7" x="69.2" y="177.1"/><rect fill="#7C6B7B" height="6.6" width="4.7" x="69.2" y="181.4"/><rect fill="#7C6B7B" height="3.2" width="4.7" x="62.8" y="177.1"/><rect fill="#7C6B7B" height="6.6" width="4.7" x="62.8" y="181.4"/><rect fill="#7C6B7B" height="3.2" width="11" x="62.8" y="194.8"/><rect fill="#7C6B7B" height="6.6" width="4.7" x="69.2" y="207"/><rect fill="#7C6B7B" height="6.6" width="4.7" x="62.8" y="207"/><rect fill="#7C6B7B" height="6.6" width="4.7" x="69.2" y="199.1"/><rect fill="#7C6B7B" height="6.6" width="4.7" x="62.8" y="199.1"/><polygon fill="#EFB395" points="60,194 68.3,189.1 76.7,194   "/><path d="M53,231.7v-4.9h-6.3C48.7,228.5,50.8,230.1,53,231.7z" fill="#DE9F75"/><path d="M52.1,231v-2.4h-3.1C50,229.5,51,230.3,52.1,231z" fill="#7C6B7B"/><path d="M61.9,237.6c4.1,2.5,8.4,4.8,12.8,6.8v-17.6H61.9V237.6z" fill="#DE9F75"/><rect fill="#7C6B7B" height="3.2" width="11" x="62.8" y="228.7"/><path d="M69.2,241.7c1.5,0.8,3.1,1.6,4.7,2.3v-3.1h-4.7V241.7z" fill="#7C6B7B"/><rect fill="#7C6B7B" height="6.6" width="4.7" x="69.2" y="233"/><path d="M62.8,238.2c0.8,0.5,1.6,0.9,2.3,1.3h2.4V233h-4.7V238.2z" fill="#7C6B7B"/><path d="M28,207.9c12.5,15.7,28.7,28.4,47.2,36.7c1.9,0.9,3.9,1.7,5.8,2.4v-87.4h-4.8L28,207.9z" opacity="0.15"/><rect fill="#C17E5D" height="32.2" width="66.6" x="94.1" y="110"/><rect fill="#EFB395" height="21.2" width="63.1" x="96.7" y="79.2"/><rect fill="#7C6B7B" height="6.1" width="4.7" x="101.5" y="83"/><rect fill="#7C6B7B" height="6.1" width="4.7" x="111.3" y="83"/><rect fill="#7C6B7B" height="6.1" width="4.7" x="121" y="83"/><rect fill="#7C6B7B" height="6.1" width="4.7" x="130.8" y="83"/><rect fill="#7C6B7B" height="6.1" width="4.7" x="140.5" y="83"/><rect fill="#7C6B7B" height="6.1" width="4.7" x="150.3" y="83"/><path d="M159.7,78.7c0.1-1.7,0.1-3.5-0.1-5.3c-1.5-18.1-15.5-31.6-31.4-31.6S98.3,55.3,96.8,73.4    c-0.1,1.8-0.2,3.6-0.1,5.3H159.7z" fill="#EFB395"/><path d="M159.7,74.4c0-0.3,0-0.6-0.1-1c-1.5-18.1-15.5-31.6-31.4-31.6S98.3,55.3,96.8,73.4c0,0.3,0,0.6-0.1,1    H159.7z" fill="#FFE7A4"/><path d="M151.4,74.3c0-0.3,0-0.6,0-0.9c-0.5-8.8-3.2-16.9-7.5-22.9c-4.3-5.9-9.7-9.2-15.4-9.2c-0.1,0-0.1,0-0.2,0    c0,0-0.1,0-0.2,0c-5.7,0.1-11.2,3.3-15.4,9.2c-4.3,6-7,14.1-7.5,22.9c0,0.3,0,0.6,0,0.9l0,0.6h10.3h7.4h10.9h7.4h10.3L151.4,74.3z     M106.2,73.9c0-0.1,0-0.3,0-0.4c0.9-15.4,8.5-27.8,18.1-30.5c-4.8,4.2-8.4,15.9-8.9,30.5c0,0.1,0,0.3,0,0.4H106.2z M116.5,73.9    c0-0.1,0-0.3,0-0.4c0.3-8.6,1.7-16.6,4-22.4c1.7-4.3,3.8-7.2,6-8.2c-0.7,1.3-1.4,3.6-2.1,8c-0.9,5.9-1.5,14-1.6,22.7    c0,0.1,0,0.3,0,0.4H116.5z M123.9,73.9c0-0.1,0-0.3,0-0.4c0.1-8.7,0.7-16.7,1.6-22.5c1.3-8.4,2.7-8.5,2.7-8.5s1.4,0.1,2.7,8.5    c0.9,5.9,1.5,13.9,1.6,22.5l0,0.4H123.9z M133.7,73.9l0-0.4c-0.1-8.7-0.7-16.8-1.6-22.7c-0.7-4.3-1.4-6.7-2.1-8    c2.2,1,4.3,3.9,6,8.2c2.3,5.8,3.7,13.8,4,22.4c0,0.1,0,0.3,0,0.4H133.7z M141.1,73.9c0-0.1,0-0.3,0-0.4    c-0.5-14.6-4.1-26.3-8.9-30.5c9.6,2.7,17.2,15.2,18.1,30.5c0,0.1,0,0.3,0,0.4H141.1z" fill="#FFDC7B"/><path d="M128.8,20.3V10.1c0-0.3-0.3-0.6-0.6-0.6s-0.6,0.3-0.6,0.6v10.3H128.8z" fill="#EFB395"/><rect fill="#5A4A56" height="6.2" width="0.9" x="89.5" y="93.7"/><rect fill="#5A4A56" height="6.2" width="0.9" x="91.5" y="93.7"/><rect fill="#5A4A56" height="6.2" width="0.9" x="93.6" y="93.7"/><rect fill="#5A4A56" height="6.2" width="0.9" x="99.7" y="93.7"/><rect fill="#5A4A56" height="6.2" width="0.9" x="101.7" y="93.7"/><rect fill="#5A4A56" height="6.2" width="0.9" x="103.7" y="93.7"/><rect fill="#5A4A56" height="6.2" width="0.9" x="109.8" y="93.7"/><rect fill="#5A4A56" height="6.2" width="0.9" x="111.8" y="93.7"/><rect fill="#5A4A56" height="6.2" width="0.9" x="113.9" y="93.7"/><rect fill="#5A4A56" height="6.2" width="0.9" x="120" y="93.7"/><rect fill="#5A4A56" height="6.2" width="0.9" x="122" y="93.7"/><rect fill="#5A4A56" height="6.2" width="0.9" x="124" y="93.7"/><rect fill="#5A4A56" height="6.2" width="0.9" x="130.1" y="93.7"/><rect fill="#5A4A56" height="6.2" width="0.9" x="132.1" y="93.7"/><rect fill="#5A4A56" height="6.2" width="0.9" x="134.2" y="93.7"/><rect fill="#5A4A56" height="6.2" width="0.9" x="140.3" y="93.7"/><rect fill="#5A4A56" height="6.2" width="0.9" x="142.3" y="93.7"/><rect fill="#5A4A56" height="6.2" width="0.9" x="144.3" y="93.7"/><rect fill="#5A4A56" height="6.2" width="0.9" x="150.4" y="93.7"/><rect fill="#5A4A56" height="6.2" width="0.9" x="152.5" y="93.7"/><rect fill="#5A4A56" height="6.2" width="0.9" x="154.5" y="93.7"/><rect fill="#5A4A56" height="6.2" width="0.9" x="160.6" y="93.7"/><rect fill="#5A4A56" height="6.2" width="0.9" x="162.6" y="93.7"/><rect fill="#5A4A56" height="6.2" width="0.9" x="164.6" y="93.7"/><path d="M171.8,93.7H83.2c-0.5,0-0.9-0.4-0.9-0.9v-0.1c0-0.5,0.4-0.9,0.9-0.9h88.6c0.5,0,0.9,0.4,0.9,0.9v0.1    C172.7,93.4,172.3,93.7,171.8,93.7z" fill="#6A5868"/><polygon fill="#DE9F75" points="171.2,101.6 83.8,101.6 86.7,110 168.3,110   "/><rect fill="#7C6B7B" height="2.2" width="3.7" x="125.5" y="110"/><rect fill="#7C6B7B" height="2.2" width="3.7" x="125.5" y="140"/><rect fill="#DE9F75" height="27.8" width="2.7" x="126" y="112.2"/><rect fill="#7C6B7B" height="2.2" width="3.7" x="135" y="110"/><rect fill="#7C6B7B" height="2.2" width="3.7" x="135" y="140"/><rect fill="#DE9F75" height="27.8" width="2.7" x="135.5" y="112.2"/><rect fill="#7C6B7B" height="2.2" width="3.7" x="144.4" y="110"/><rect fill="#7C6B7B" height="2.2" width="3.7" x="144.4" y="140"/><rect fill="#DE9F75" height="27.8" width="2.7" x="144.9" y="112.2"/><rect fill="#7C6B7B" height="2.2" width="3.7" x="153.9" y="110"/><rect fill="#7C6B7B" height="2.2" width="3.7" x="153.9" y="140"/><rect fill="#DE9F75" height="27.8" width="2.7" x="154.4" y="112.2"/><rect fill="#7C6B7B" height="2.2" width="3.7" x="163.3" y="110"/><rect fill="#7C6B7B" height="2.2" width="3.7" x="163.3" y="140"/><rect fill="#DE9F75" height="27.8" width="2.7" x="163.8" y="112.2"/><rect fill="#7C6B7B" height="2.2" width="3.7" x="87.7" y="110"/><rect fill="#7C6B7B" height="2.2" width="3.7" x="87.7" y="140"/><rect fill="#DE9F75" height="27.8" width="2.7" x="88.2" y="112.2"/><rect fill="#7C6B7B" height="2.2" width="3.7" x="97.2" y="110"/><rect fill="#7C6B7B" height="2.2" width="3.7" x="97.2" y="140"/><rect fill="#DE9F75" height="27.8" width="2.7" x="97.7" y="112.2"/><rect fill="#7C6B7B" height="2.2" width="3.7" x="106.6" y="110"/><rect fill="#7C6B7B" height="2.2" width="3.7" x="106.6" y="140"/><rect fill="#DE9F75" height="27.8" width="2.7" x="107.1" y="112.2"/><rect fill="#7C6B7B" height="2.2" width="3.7" x="116.1" y="110"/><rect fill="#7C6B7B" height="2.2" width="3.7" x="116.1" y="140"/><rect fill="#DE9F75" height="27.8" width="2.7" x="116.6" y="112.2"/><rect fill="#DE9F75" height="16.4" width="81.4" x="86.7" y="142.2"/><rect fill="#EFB395" height="2.8" width="83.7" x="85.5" y="142.2"/><rect fill="#EFB395" height="2.8" width="90.3" x="82.3" y="100"/><path d="M87,90.5h-0.2c-0.9,0-1.6,0.7-1.6,1.6v7.8h3.5v-7.8C88.7,91.2,87.9,90.5,87,90.5z" fill="#7C6B7B"/><path d="M97.2,90.5h-0.2c-0.9,0-1.6,0.7-1.6,1.6v7.8h3.5v-7.8C98.8,91.2,98.1,90.5,97.2,90.5z" fill="#7C6B7B"/><path d="M107.3,90.5h-0.2c-0.9,0-1.6,0.7-1.6,1.6v7.8h3.5v-7.8C109,91.2,108.2,90.5,107.3,90.5z" fill="#7C6B7B"/><path d="M117.5,90.5h-0.2c-0.9,0-1.6,0.7-1.6,1.6v7.8h3.5v-7.8C119.1,91.2,118.4,90.5,117.5,90.5z" fill="#7C6B7B"/><path d="M127.6,90.5h-0.2c-0.9,0-1.6,0.7-1.6,1.6v7.8h3.5v-7.8C129.3,91.2,128.5,90.5,127.6,90.5z" fill="#7C6B7B"/><path d="M137.8,90.5h-0.2c-0.9,0-1.6,0.7-1.6,1.6v7.8h3.5v-7.8C139.4,91.2,138.7,90.5,137.8,90.5z" fill="#7C6B7B"/><path d="M147.9,90.5h-0.2c-0.9,0-1.6,0.7-1.6,1.6v7.8h3.5v-7.8C149.6,91.2,148.8,90.5,147.9,90.5z" fill="#7C6B7B"/><path d="M158.1,90.5h-0.2c-0.9,0-1.6,0.7-1.6,1.6v7.8h3.5v-7.8C159.7,91.2,159,90.5,158.1,90.5z" fill="#7C6B7B"/><path d="M168.2,90.5H168c-0.9,0-1.6,0.7-1.6,1.6v7.8h3.5v-7.8C169.9,91.2,169.1,90.5,168.2,90.5z" fill="#7C6B7B"/><rect fill="#EFB395" height="11.5" width="12.2" x="122.2" y="30.3"/><path d="M134.4,42.7H122c-0.4,0-0.8-0.4-0.8-0.8v-0.1c0-0.4,0.4-0.8,0.8-0.8h12.4c0.4,0,0.8,0.4,0.8,0.8v0.1    C135.3,42.3,134.9,42.7,134.4,42.7z" fill="#DE9F75"/><path d="M124.6,32.8L124.6,32.8c0,0-1.2,1-1.2,1.7V41h2.4v-6.5C125.8,33.8,124.6,32.8,124.6,32.8z" fill="#7C6B7B"/><path d="M128.2,32.8L128.2,32.8c0,0-1.2,1-1.2,1.7V41h2.4v-6.5C129.5,33.8,128.2,32.8,128.2,32.8z" fill="#7C6B7B"/><path d="M131.9,32.8L131.9,32.8c0,0-1.2,1-1.2,1.7V41h2.4v-6.5C133.1,33.8,131.9,32.8,131.9,32.8z" fill="#7C6B7B"/><path d="M134.2,30.3c0.1-0.8,0.2-1.5,0.2-2.4c0-4.9-6.1-8.9-6.1-8.9s-6.1,4-6.1,8.9c0,0.8,0.1,1.6,0.2,2.4H134.2z" fill="#EFB395"/><path d="M134.4,31.2H122c-0.4,0-0.8-0.4-0.8-0.8v-0.1c0-0.4,0.4-0.8,0.8-0.8h12.4c0.4,0,0.8,0.4,0.8,0.8v0.1    C135.3,30.8,134.9,31.2,134.4,31.2z" fill="#DE9F75"/><circle cx="128.2" cy="16.2" fill="#DE9F75" r="1.9"/><path d="M160.1,75.1H96.3c-0.4,0-0.7-0.3-0.7-0.7v-0.1c0-0.4,0.3-0.7,0.7-0.7h63.8c0.4,0,0.7,0.3,0.7,0.7v0.1    C160.9,74.7,160.6,75.1,160.1,75.1z" fill="#DE9F75"/><path d="M161.3,79.6H95.1c-0.4,0-0.8-0.3-0.8-0.8v-0.1c0-0.4,0.3-0.8,0.8-0.8h66.2c0.4,0,0.8,0.3,0.8,0.8v0.1    C162.1,79.2,161.8,79.6,161.3,79.6z" fill="#DE9F75"/><path d="M79.2,246.3c15.1,6.2,31.5,9.7,48.8,9.7c16.9,0,33.1-3.3,47.8-9.2v-75.5H79.2V246.3z" fill="#C17E5D"/><path d="M169.5,216.7h-12.1v-29.9c0-3.1,2.5-5.7,5.7-5.7h0.8c3.1,0,5.7,2.5,5.7,5.7V216.7z" fill="#DE9F75"/><path d="M158.6,215.5v-28.4c0-2.7,2.2-4.9,4.9-4.9c2.7,0,4.9,2.2,4.9,4.9v28.4H158.6z" fill="#7C6B7B"/><rect fill="#DE9F75" height="34.3" width="1.7" x="162.6" y="181.8"/><rect fill="#DE9F75" height="1.4" width="10.6" x="158.2" y="186.5"/><rect fill="#DE9F75" height="0.6" width="10.6" x="158.2" y="193.6"/><rect fill="#DE9F75" height="0.6" width="10.6" x="158.2" y="205.5"/><rect fill="#DE9F75" height="0.6" width="10.6" x="158.2" y="212.5"/><rect fill="#DE9F75" height="3.3" width="10.6" x="158.2" y="199.5"/><path d="M151.5,216.7h-12.1v-29.9c0-3.1,2.5-5.7,5.7-5.7h0.8c3.1,0,5.7,2.5,5.7,5.7V216.7z" fill="#DE9F75"/><path d="M140.5,215.5v-28.4c0-2.7,2.2-4.9,4.9-4.9c2.7,0,4.9,2.2,4.9,4.9v28.4H140.5z" fill="#7C6B7B"/><rect fill="#DE9F75" height="34.3" width="1.7" x="144.6" y="181.8"/><rect fill="#DE9F75" height="1.4" width="10.6" x="140.1" y="186.5"/><rect fill="#DE9F75" height="0.6" width="10.6" x="140.1" y="193.6"/><rect fill="#DE9F75" height="0.6" width="10.6" x="140.1" y="205.5"/><rect fill="#DE9F75" height="0.6" width="10.6" x="140.1" y="212.5"/><rect fill="#DE9F75" height="3.3" width="10.6" x="140.1" y="199.5"/><path d="M133.5,216.7h-12.1v-29.9c0-3.1,2.5-5.7,5.7-5.7h0.8c3.1,0,5.7,2.5,5.7,5.7V216.7z" fill="#DE9F75"/><path d="M122.5,215.5v-28.4c0-2.7,2.2-4.9,4.9-4.9c2.7,0,4.9,2.2,4.9,4.9v28.4H122.5z" fill="#7C6B7B"/><rect fill="#DE9F75" height="34.3" width="1.7" x="126.6" y="181.8"/><rect fill="#DE9F75" height="1.4" width="10.6" x="122.1" y="186.5"/><rect fill="#DE9F75" height="0.6" width="10.6" x="122.1" y="193.6"/><rect fill="#DE9F75" height="0.6" width="10.6" x="122.1" y="205.5"/><rect fill="#DE9F75" height="0.6" width="10.6" x="122.1" y="212.5"/><rect fill="#DE9F75" height="3.3" width="10.6" x="122.1" y="199.5"/><path d="M115.5,216.7h-12.1v-29.9c0-3.1,2.5-5.7,5.7-5.7h0.8c3.1,0,5.7,2.5,5.7,5.7V216.7z" fill="#DE9F75"/><path d="M104.5,215.5v-28.4c0-2.7,2.2-4.9,4.9-4.9c2.7,0,4.9,2.2,4.9,4.9v28.4H104.5z" fill="#7C6B7B"/><rect fill="#DE9F75" height="34.3" width="1.7" x="108.6" y="181.8"/><rect fill="#DE9F75" height="1.4" width="10.6" x="104.1" y="186.5"/><rect fill="#DE9F75" height="0.6" width="10.6" x="104.1" y="193.6"/><rect fill="#DE9F75" height="0.6" width="10.6" x="104.1" y="205.5"/><rect fill="#DE9F75" height="0.6" width="10.6" x="104.1" y="212.5"/><rect fill="#DE9F75" height="3.3" width="10.6" x="104.1" y="199.5"/><path d="M97.5,216.7H85.4v-29.9c0-3.1,2.5-5.7,5.7-5.7h0.8c3.1,0,5.7,2.5,5.7,5.7V216.7z" fill="#DE9F75"/><path d="M86.5,215.5v-28.4c0-2.7,2.2-4.9,4.9-4.9c2.7,0,4.9,2.2,4.9,4.9v28.4H86.5z" fill="#7C6B7B"/><rect fill="#DE9F75" height="34.3" width="1.7" x="90.5" y="181.8"/><rect fill="#DE9F75" height="1.4" width="10.6" x="86.1" y="186.5"/><rect fill="#DE9F75" height="0.6" width="10.6" x="86.1" y="193.6"/><rect fill="#DE9F75" height="0.6" width="10.6" x="86.1" y="205.5"/><rect fill="#DE9F75" height="0.6" width="10.6" x="86.1" y="212.5"/><rect fill="#DE9F75" height="3.3" width="10.6" x="86.1" y="199.5"/><path d="M79.2,246.3c15.1,6.2,31.5,9.7,48.8,9.7c16.9,0,33.1-3.3,47.8-9.2v-75.5H79.2V246.3z" opacity="0.15"/><rect fill="#DE9F75" height="5.7" width="94.9" x="80" y="162.1"/><rect fill="#EFB395" height="3.5" width="97.1" x="78.9" y="167.7"/><polygon fill="#DE9F75" points="84.7,175.6 80.4,175.6 79.6,171.2 85.5,171.2   "/><polygon fill="#DE9F75" points="84.7,175.6 80.4,175.6 79.6,210 85.5,210   "/><path d="M84.7,176h-4.3c-0.2,0-0.3-0.1-0.3-0.3v0c0-0.2,0.1-0.3,0.3-0.3h4.3c0.2,0,0.3,0.1,0.3,0.3v0    C85,175.8,84.9,176,84.7,176z" fill="#EFB395"/><rect fill="#DE9F75" height="6.8" width="6.3" x="79.4" y="210.6"/><path d="M85.6,210.9h-6c-0.3,0-0.6-0.3-0.6-0.6v-0.1c0-0.3,0.3-0.6,0.6-0.6h6c0.3,0,0.6,0.3,0.6,0.6v0.1    C86.2,210.6,85.9,210.9,85.6,210.9z" fill="#EFB395"/><polygon fill="#DE9F75" points="102.7,175.6 98.4,175.6 97.6,171.2 103.5,171.2   "/><polygon fill="#DE9F75" points="102.7,175.6 98.4,175.6 97.6,210 103.5,210   "/><path d="M102.7,176h-4.3c-0.2,0-0.3-0.1-0.3-0.3v0c0-0.2,0.1-0.3,0.3-0.3h4.3c0.2,0,0.3,0.1,0.3,0.3v0    C103,175.8,102.8,176,102.7,176z" fill="#EFB395"/><rect fill="#DE9F75" height="6.8" width="6.3" x="97.4" y="210.6"/><path d="M103.6,210.9h-6c-0.3,0-0.6-0.3-0.6-0.6v-0.1c0-0.3,0.3-0.6,0.6-0.6h6c0.3,0,0.6,0.3,0.6,0.6v0.1    C104.2,210.6,103.9,210.9,103.6,210.9z" fill="#EFB395"/><polygon fill="#DE9F75" points="120.6,175.6 116.4,175.6 115.6,171.2 121.4,171.2   "/><polygon fill="#DE9F75" points="120.6,175.6 116.4,175.6 115.6,210 121.4,210   "/><path d="M120.6,176h-4.3c-0.2,0-0.3-0.1-0.3-0.3v0c0-0.2,0.1-0.3,0.3-0.3h4.3c0.2,0,0.3,0.1,0.3,0.3v0    C121,175.8,120.8,176,120.6,176z" fill="#EFB395"/><rect fill="#DE9F75" height="6.8" width="6.3" x="115.3" y="210.6"/><path d="M121.5,210.9h-6c-0.3,0-0.6-0.3-0.6-0.6v-0.1c0-0.3,0.3-0.6,0.6-0.6h6c0.3,0,0.6,0.3,0.6,0.6v0.1    C122.2,210.6,121.9,210.9,121.5,210.9z" fill="#EFB395"/><polygon fill="#DE9F75" points="138.6,175.6 134.4,175.6 133.5,171.2 139.4,171.2   "/><polygon fill="#DE9F75" points="138.6,175.6 134.4,175.6 133.5,210 139.4,210   "/><path d="M138.6,176h-4.3c-0.2,0-0.3-0.1-0.3-0.3v0c0-0.2,0.1-0.3,0.3-0.3h4.3c0.2,0,0.3,0.1,0.3,0.3v0    C138.9,175.8,138.8,176,138.6,176z" fill="#EFB395"/><rect fill="#DE9F75" height="6.8" width="6.3" x="133.3" y="210.6"/><path d="M139.5,210.9h-6c-0.3,0-0.6-0.3-0.6-0.6v-0.1c0-0.3,0.3-0.6,0.6-0.6h6c0.3,0,0.6,0.3,0.6,0.6v0.1    C140.1,210.6,139.8,210.9,139.5,210.9z" fill="#EFB395"/><polygon fill="#DE9F75" points="156.6,175.6 152.3,175.6 151.5,171.2 157.4,171.2   "/><polygon fill="#DE9F75" points="156.6,175.6 152.3,175.6 151.5,210 157.4,210   "/><path d="M156.6,176h-4.3c-0.2,0-0.3-0.1-0.3-0.3v0c0-0.2,0.1-0.3,0.3-0.3h4.3c0.2,0,0.3,0.1,0.3,0.3v0    C156.9,175.8,156.8,176,156.6,176z" fill="#EFB395"/><rect fill="#DE9F75" height="6.8" width="6.3" x="151.3" y="210.6"/><path d="M157.5,210.9h-6c-0.3,0-0.6-0.3-0.6-0.6v-0.1c0-0.3,0.3-0.6,0.6-0.6h6c0.3,0,0.6,0.3,0.6,0.6v0.1    C158.1,210.6,157.8,210.9,157.5,210.9z" fill="#EFB395"/><polygon fill="#DE9F75" points="174.6,175.6 170.3,175.6 169.5,171.2 175.4,171.2   "/><polygon fill="#DE9F75" points="174.6,175.6 170.3,175.6 169.5,210 175.4,210   "/><path d="M174.6,176h-4.3c-0.2,0-0.3-0.1-0.3-0.3v0c0-0.2,0.1-0.3,0.3-0.3h4.3c0.2,0,0.3,0.1,0.3,0.3v0    C174.9,175.8,174.7,176,174.6,176z" fill="#EFB395"/><rect fill="#DE9F75" height="6.8" width="6.3" x="169.3" y="210.6"/><path d="M175.4,210.9h-6c-0.3,0-0.6-0.3-0.6-0.6v-0.1c0-0.3,0.3-0.6,0.6-0.6h6c0.3,0,0.6,0.3,0.6,0.6v0.1    C176.1,210.6,175.8,210.9,175.4,210.9z" fill="#EFB395"/><rect fill="#EFB395" height="1.6" width="107" x="73.7" y="217.3"/><rect fill="#DE9F75" height="5" width="105.1" x="74.6" y="219"/><rect fill="#DE9F75" height="20.7" width="7.2" x="113.9" y="224"/><rect height="1" opacity="0.15" width="7.2" x="113.9" y="224"/><rect height="0.4" opacity="0.15" width="7.2" x="113.9" y="226.4"/><rect height="0.4" opacity="0.15" width="7.2" x="113.9" y="228.5"/><rect height="0.4" opacity="0.15" width="7.2" x="113.9" y="230.5"/><rect height="0.4" opacity="0.15" width="7.2" x="113.9" y="232.6"/><rect height="0.4" opacity="0.15" width="7.2" x="113.9" y="234.7"/><rect height="0.4" opacity="0.15" width="7.2" x="113.9" y="236.8"/><rect height="0.4" opacity="0.15" width="7.2" x="113.9" y="238.9"/><path d="M121.8,244.7v11.2c-2.9-0.1-5.7-0.4-8.6-0.7v-10.5H121.8z" fill="#EFB395"/><rect fill="#EFB395" height="1.1" width="8.6" x="113.2" y="240.9"/><rect fill="#DE9F75" height="20.7" width="7.2" x="133.2" y="224"/><rect height="1" opacity="0.15" width="7.2" x="133.2" y="224"/><rect height="0.4" opacity="0.15" width="7.2" x="133.2" y="226.4"/><rect height="0.4" opacity="0.15" width="7.2" x="133.2" y="228.5"/><rect height="0.4" opacity="0.15" width="7.2" x="133.2" y="230.5"/><rect height="0.4" opacity="0.15" width="7.2" x="133.2" y="232.6"/><rect height="0.4" opacity="0.15" width="7.2" x="133.2" y="234.7"/><rect height="0.4" opacity="0.15" width="7.2" x="133.2" y="236.8"/><rect height="0.4" opacity="0.15" width="7.2" x="133.2" y="238.9"/><path d="M141.1,244.7v10.7c-2.8,0.3-5.7,0.5-8.6,0.6v-11.3H141.1z" fill="#EFB395"/><rect fill="#EFB395" height="1.1" width="8.6" x="132.5" y="240.9"/><rect fill="#DE9F75" height="20.7" width="7.2" x="152.5" y="224"/><rect height="1" opacity="0.15" width="7.2" x="152.5" y="224"/><rect height="0.4" opacity="0.15" width="7.2" x="152.5" y="226.4"/><rect height="0.4" opacity="0.15" width="7.2" x="152.5" y="228.5"/><rect height="0.4" opacity="0.15" width="7.2" x="152.5" y="230.5"/><rect height="0.4" opacity="0.15" width="7.2" x="152.5" y="232.6"/><rect height="0.4" opacity="0.15" width="7.2" x="152.5" y="234.7"/><rect height="0.4" opacity="0.15" width="7.2" x="152.5" y="236.8"/><rect height="0.4" opacity="0.15" width="7.2" x="152.5" y="238.9"/><path d="M160.4,244.7v7.2c-2.8,0.7-5.7,1.4-8.6,1.9v-9.1H160.4z" fill="#EFB395"/><rect fill="#EFB395" height="1.1" width="8.6" x="151.8" y="240.9"/><rect fill="#DE9F75" height="20.7" width="7.2" x="171.8" y="224"/><rect height="1" opacity="0.15" width="7.2" x="171.8" y="224"/><rect height="0.4" opacity="0.15" width="7.2" x="171.8" y="226.4"/><rect height="0.4" opacity="0.15" width="7.2" x="171.8" y="228.5"/><rect height="0.4" opacity="0.15" width="7.2" x="171.8" y="230.5"/><rect height="0.4" opacity="0.15" width="7.2" x="171.8" y="232.6"/><rect height="0.4" opacity="0.15" width="7.2" x="171.8" y="234.7"/><rect height="0.4" opacity="0.15" width="7.2" x="171.8" y="236.8"/><rect height="0.4" opacity="0.15" width="7.2" x="171.8" y="238.9"/><path d="M171.1,248.5c2.9-1,5.8-2.2,8.6-3.4v-0.5h-8.6V248.5z" fill="#EFB395"/><rect fill="#EFB395" height="1.1" width="8.6" x="171.1" y="240.9"/><rect fill="#DE9F75" height="20.7" width="7.2" x="75.3" y="224"/><rect height="1" opacity="0.15" width="7.2" x="75.3" y="224"/><rect height="0.4" opacity="0.15" width="7.2" x="75.3" y="226.4"/><rect height="0.4" opacity="0.15" width="7.2" x="75.3" y="228.5"/><rect height="0.4" opacity="0.15" width="7.2" x="75.3" y="230.5"/><rect height="0.4" opacity="0.15" width="7.2" x="75.3" y="232.6"/><rect height="0.4" opacity="0.15" width="7.2" x="75.3" y="234.7"/><rect height="0.4" opacity="0.15" width="7.2" x="75.3" y="236.8"/><rect height="0.4" opacity="0.15" width="7.2" x="75.3" y="238.9"/><path d="M83.2,244.7v3.3c-2.7-1-5.3-2.1-7.9-3.3H83.2z" fill="#EFB395"/><rect fill="#EFB395" height="1.1" width="8.6" x="74.6" y="240.9"/><rect fill="#DE9F75" height="20.7" width="7.2" x="94.6" y="224"/><rect height="1" opacity="0.15" width="7.2" x="94.6" y="224"/><rect height="0.4" opacity="0.15" width="7.2" x="94.6" y="226.4"/><rect height="0.4" opacity="0.15" width="7.2" x="94.6" y="228.5"/><rect height="0.4" opacity="0.15" width="7.2" x="94.6" y="230.5"/><rect height="0.4" opacity="0.15" width="7.2" x="94.6" y="232.6"/><rect height="0.4" opacity="0.15" width="7.2" x="94.6" y="234.7"/><rect height="0.4" opacity="0.15" width="7.2" x="94.6" y="236.8"/><rect height="0.4" opacity="0.15" width="7.2" x="94.6" y="238.9"/><path d="M102.5,244.7v8.8c-2.9-0.6-5.7-1.3-8.6-2v-6.8H102.5z" fill="#EFB395"/><rect fill="#EFB395" height="1.1" width="8.6" x="93.9" y="240.9"/><rect fill="#DE9F75" height="0.8" width="11.6" x="157.6" y="216.5"/><rect fill="#EFB395" height="0.7" width="11.7" x="157.6" y="211.2"/><rect fill="#EFB395" height="4.7" width="0.8" x="158.3" y="211.9"/><rect fill="#EFB395" height="4.7" width="0.8" x="160.2" y="211.9"/><rect fill="#EFB395" height="4.7" width="0.8" x="162.1" y="211.9"/><rect fill="#EFB395" height="4.7" width="0.8" x="164" y="211.9"/><rect fill="#EFB395" height="4.7" width="0.8" x="165.8" y="211.9"/><rect fill="#EFB395" height="4.7" width="0.8" x="167.7" y="211.9"/><rect fill="#DE9F75" height="0.8" width="11.6" x="139.7" y="216.5"/><rect fill="#EFB395" height="0.7" width="11.7" x="139.6" y="211.2"/><rect fill="#EFB395" height="4.7" width="0.8" x="140.4" y="211.9"/><rect fill="#EFB395" height="4.7" width="0.8" x="142.2" y="211.9"/><rect fill="#EFB395" height="4.7" width="0.8" x="144.1" y="211.9"/><rect fill="#EFB395" height="4.7" width="0.8" x="146" y="211.9"/><rect fill="#EFB395" height="4.7" width="0.8" x="147.9" y="211.9"/><rect fill="#EFB395" height="4.7" width="0.8" x="149.8" y="211.9"/><rect fill="#DE9F75" height="0.8" width="11.6" x="121.7" y="216.5"/><rect fill="#EFB395" height="0.7" width="11.7" x="121.7" y="211.2"/><rect fill="#EFB395" height="4.7" width="0.8" x="122.4" y="211.9"/><rect fill="#EFB395" height="4.7" width="0.8" x="124.3" y="211.9"/><rect fill="#EFB395" height="4.7" width="0.8" x="126.2" y="211.9"/><rect fill="#EFB395" height="4.7" width="0.8" x="128.1" y="211.9"/><rect fill="#EFB395" height="4.7" width="0.8" x="130" y="211.9"/><rect fill="#EFB395" height="4.7" width="0.8" x="131.8" y="211.9"/><rect fill="#DE9F75" height="0.8" width="11.6" x="103.8" y="216.5"/><rect fill="#EFB395" height="0.7" width="11.7" x="103.7" y="211.2"/><rect fill="#EFB395" height="4.7" width="0.8" x="104.5" y="211.9"/><rect fill="#EFB395" height="4.7" width="0.8" x="106.4" y="211.9"/><rect fill="#EFB395" height="4.7" width="0.8" x="108.2" y="211.9"/><rect fill="#EFB395" height="4.7" width="0.8" x="110.1" y="211.9"/><rect fill="#EFB395" height="4.7" width="0.8" x="112" y="211.9"/><rect fill="#EFB395" height="4.7" width="0.8" x="113.9" y="211.9"/><rect fill="#DE9F75" height="0.8" width="11.6" x="85.8" y="216.5"/><rect fill="#EFB395" height="0.7" width="11.7" x="85.8" y="211.2"/><rect fill="#EFB395" height="4.7" width="0.8" x="86.5" y="211.9"/><rect fill="#EFB395" height="4.7" width="0.8" x="88.4" y="211.9"/><rect fill="#EFB395" height="4.7" width="0.8" x="90.3" y="211.9"/><rect fill="#EFB395" height="4.7" width="0.8" x="92.2" y="211.9"/><rect fill="#EFB395" height="4.7" width="0.8" x="94.1" y="211.9"/><rect fill="#EFB395" height="4.7" width="0.8" x="95.9" y="211.9"/><polygon fill="#EFB395" points="179,159 178.2,162.1 76.8,162.1 76,159 127.5,136.4   "/><polygon fill="#DE9F75" points="84.6,158.8 127.5,140 170.4,158.8   "/><rect fill="#EFB395" height="2.5" width="1.9" x="128.7" y="140.2"/><rect fill="#EFB395" height="2.5" width="1.9" x="132" y="141.5"/><rect fill="#EFB395" height="2.5" width="1.9" x="135.3" y="142.9"/><rect fill="#EFB395" height="2.5" width="1.9" x="138.6" y="144.3"/><rect fill="#EFB395" height="2.5" width="1.9" x="141.8" y="145.7"/><rect fill="#EFB395" height="2.5" width="1.9" x="145.1" y="147.1"/><rect fill="#EFB395" height="2.5" width="1.9" x="148.4" y="148.5"/><rect fill="#EFB395" height="2.5" width="1.9" x="151.7" y="149.9"/><rect fill="#EFB395" height="2.5" width="1.9" x="155" y="151.3"/><rect fill="#EFB395" height="2.5" width="1.9" x="158.3" y="152.7"/><rect fill="#EFB395" height="2.5" width="1.9" x="161.6" y="154.1"/><rect fill="#EFB395" height="2.5" width="1.9" x="164.8" y="155.5"/><rect fill="#EFB395" height="2.5" width="1.9" x="124.4" y="140.2"/><rect fill="#EFB395" height="2.5" width="1.9" x="121.1" y="141.5"/><rect fill="#EFB395" height="2.5" width="1.9" x="117.8" y="142.9"/><rect fill="#EFB395" height="2.5" width="1.9" x="114.5" y="144.3"/><rect fill="#EFB395" height="2.5" width="1.9" x="111.3" y="145.7"/><rect fill="#EFB395" height="2.5" width="1.9" x="108" y="147.1"/><rect fill="#EFB395" height="2.5" width="1.9" x="104.7" y="148.5"/><rect fill="#EFB395" height="2.5" width="1.9" x="101.4" y="149.9"/><rect fill="#EFB395" height="2.5" width="1.9" x="98.1" y="151.3"/><rect fill="#EFB395" height="2.5" width="1.9" x="94.8" y="152.7"/><rect fill="#EFB395" height="2.5" width="1.9" x="91.5" y="154.1"/><rect fill="#EFB395" height="2.5" width="1.9" x="88.3" y="155.5"/></g></g></svg>