<?xml version="1.0" encoding="UTF-8" standalone="no" ?>
<!DOCTYPE svg PUBLIC "-//W3C//DTD SVG 1.1//EN" "http://www.w3.org/Graphics/SVG/1.1/DTD/svg11.dtd">
<svg xmlns="http://www.w3.org/2000/svg" xmlns:xlink="http://www.w3.org/1999/xlink" version="1.1" width="339.94140625" height="113.3735" xml:space="preserve">
<desc>Created with Fabric.js 1.6.0-rc.1</desc>
<defs></defs>
  <g transform="translate(170.47 36.72)">
   <text font-family="FFF Tusj" font-size="40" font-weight="normal" style="stroke: none; stroke-width: 1; stroke-dasharray: none; stroke-linecap: butt; stroke-linejoin: miter; stroke-miterlimit: 10; fill: #000000; fill-rule: nonzero; opacity: 1;" ><tspan x="-159.97" y="8.98" style="stroke: none; stroke-width: 0; stroke-dasharray: none; stroke-linecap: butt; stroke-linejoin: miter; stroke-miterlimit: 4; fill: #000000; fill-rule: ; opacity: 1;">E</tspan><tspan x="-131.12" y="8.98" style="stroke: none; stroke-width: 0; stroke-dasharray: none; stroke-linecap: butt; stroke-linejoin: miter; stroke-miterlimit: 4; fill: #000000; fill-rule: ; opacity: 1;">r</tspan><tspan x="-111.12" y="8.98" style="stroke: none; stroke-width: 0; stroke-dasharray: none; stroke-linecap: butt; stroke-linejoin: miter; stroke-miterlimit: 4; fill: #000000; fill-rule: ; opacity: 1;">i</tspan><tspan x="-98.62" y="8.98" style="stroke: none; stroke-width: 0; stroke-dasharray: none; stroke-linecap: butt; stroke-linejoin: miter; stroke-miterlimit: 4; fill: #000000; fill-rule: ; opacity: 1;">c</tspan><tspan x="-77.37" y="8.98" style="stroke: none; stroke-width: 0; stroke-dasharray: none; stroke-linecap: butt; stroke-linejoin: miter; stroke-miterlimit: 4; fill: #000000; fill-rule: ; opacity: 1;"> </tspan><tspan x="-67.22" y="8.98" style="stroke: none; stroke-width: 0; stroke-dasharray: none; stroke-linecap: butt; stroke-linejoin: miter; stroke-miterlimit: 4; fill: #000000; fill-rule: ; opacity: 1;">W</tspan><tspan x="-24.72" y="8.98" style="stroke: none; stroke-width: 0; stroke-dasharray: none; stroke-linecap: butt; stroke-linejoin: miter; stroke-miterlimit: 4; fill: #000000; fill-rule: ; opacity: 1;">i</tspan><tspan x="-12.22" y="8.98" style="stroke: none; stroke-width: 0; stroke-dasharray: none; stroke-linecap: butt; stroke-linejoin: miter; stroke-miterlimit: 4; fill: #000000; fill-rule: ; opacity: 1;">l</tspan><tspan x="-1.4" y="8.98" style="stroke: none; stroke-width: 0; stroke-dasharray: none; stroke-linecap: butt; stroke-linejoin: miter; stroke-miterlimit: 4; fill: #000000; fill-rule: ; opacity: 1;">l</tspan><tspan x="9.42" y="8.98" style="stroke: none; stroke-width: 0; stroke-dasharray: none; stroke-linecap: butt; stroke-linejoin: miter; stroke-miterlimit: 4; fill: #000000; fill-rule: ; opacity: 1;">i</tspan><tspan x="21.92" y="8.98" style="stroke: none; stroke-width: 0; stroke-dasharray: none; stroke-linecap: butt; stroke-linejoin: miter; stroke-miterlimit: 4; fill: #000000; fill-rule: ; opacity: 1;">n</tspan><tspan x="48.58" y="8.98" style="stroke: none; stroke-width: 0; stroke-dasharray: none; stroke-linecap: butt; stroke-linejoin: miter; stroke-miterlimit: 4; fill: #000000; fill-rule: ; opacity: 1;">g</tspan><tspan x="71.65" y="8.98" style="stroke: none; stroke-width: 0; stroke-dasharray: none; stroke-linecap: butt; stroke-linejoin: miter; stroke-miterlimit: 4; fill: #000000; fill-rule: ; opacity: 1;">h</tspan><tspan x="97.47" y="8.98" style="stroke: none; stroke-width: 0; stroke-dasharray: none; stroke-linecap: butt; stroke-linejoin: miter; stroke-miterlimit: 4; fill: #000000; fill-rule: ; opacity: 1;">a</tspan><tspan x="119.97" y="8.98" style="stroke: none; stroke-width: 0; stroke-dasharray: none; stroke-linecap: butt; stroke-linejoin: miter; stroke-miterlimit: 4; fill: #000000; fill-rule: ; opacity: 1;">m</tspan></text>
 </g>
<g style="stroke: none; stroke-width: 1; stroke-dasharray: none; stroke-linecap: butt; stroke-linejoin: miter; stroke-miterlimit: 10; fill: none; fill-rule: nonzero; opacity: 1;" transform="translate(110.35000000000004 25.990000000000002) scale(0.23 0.23)" >
  <path d="M 211.859 267.094 V 244.91 c 0 -7.036 1.924 -13.577 5.023 -19.412 c -11.829 -11.97 -50.741 -47.113 -101.994 -48.949 c 0 0 -27.78 30.57 -26.58 79.448 c -1.201 48.887 26.58 79.448 26.58 79.448 c 51.253 -1.827 90.165 -36.97 101.994 -48.94 C 213.783 280.67 211.859 274.12 211.859 267.094" style="stroke: none; stroke-width: 1; stroke-dasharray: none; stroke-linecap: butt; stroke-linejoin: miter; stroke-miterlimit: 10; fill: #04080f; fill-rule: nonzero; opacity: 1;" transform=" matrix(1 0 0 1 0 0) " stroke-linecap="round" />
  <path d="M 88.311 255.999 c -0.327 -13.206 1.492 -25.017 4.281 -35.31 H 0 v 70.621 h 92.593 C 89.803 281.017 87.985 269.205 88.311 255.999" style="stroke: none; stroke-width: 1; stroke-dasharray: none; stroke-linecap: butt; stroke-linejoin: miter; stroke-miterlimit: 10; fill: #556080; fill-rule: nonzero; opacity: 1;" transform=" matrix(1 0 0 1 0 0) " stroke-linecap="round" />
  <path d="M 419.398 220.689 c 2.79 10.293 4.608 22.104 4.281 35.31 c 0.327 13.206 -1.492 25.017 -4.281 35.31 h 92.601 v -70.621 H 419.398 z" style="stroke: none; stroke-width: 1; stroke-dasharray: none; stroke-linecap: butt; stroke-linejoin: miter; stroke-miterlimit: 10; fill: #556080; fill-rule: nonzero; opacity: 1;" transform=" matrix(1 0 0 1 0 0) " stroke-linecap="round" />
  <path d="M 300.134 267.089 v -22.184 c 0 -7.036 -1.924 -13.577 -5.023 -19.412 c 11.829 -11.97 50.741 -47.113 101.994 -48.94 c 0 0 27.78 30.561 26.58 79.448 c 1.201 48.878 -26.58 79.448 -26.58 79.448 c -51.253 -1.836 -90.165 -36.979 -101.994 -48.949 C 298.21 280.666 300.134 274.125 300.134 267.089" style="stroke: none; stroke-width: 1; stroke-dasharray: none; stroke-linecap: butt; stroke-linejoin: miter; stroke-miterlimit: 10; fill: #04080f; fill-rule: nonzero; opacity: 1;" transform=" matrix(1 0 0 1 0 0) " stroke-linecap="round" />
  <path d="M 300.143 255.999 c -3.24 0 -6.356 -1.783 -7.91 -4.882 c -2.18 -4.361 -0.406 -9.657 3.955 -11.847 l 35.31 -17.655 c 4.37 -2.189 9.666 -0.406 11.847 3.955 c 2.18 4.361 0.406 9.657 -3.955 11.847 l -35.31 17.655 C 302.818 255.699 301.467 255.999 300.143 255.999" style="stroke: none; stroke-width: 1; stroke-dasharray: none; stroke-linecap: butt; stroke-linejoin: miter; stroke-miterlimit: 10; fill: #556080; fill-rule: nonzero; opacity: 1;" transform=" matrix(1 0 0 1 0 0) " stroke-linecap="round" />
  <path d="M 211.85 255.999 c -1.324 0 -2.675 -0.3 -3.937 -0.927 l -35.31 -17.655 c -4.361 -2.189 -6.135 -7.486 -3.955 -11.847 c 2.18 -4.361 7.468 -6.144 11.847 -3.955 l 35.31 17.655 c 4.361 2.189 6.135 7.486 3.955 11.847 C 218.206 254.216 215.089 255.999 211.85 255.999" style="stroke: none; stroke-width: 1; stroke-dasharray: none; stroke-linecap: butt; stroke-linejoin: miter; stroke-miterlimit: 10; fill: #556080; fill-rule: nonzero; opacity: 1;" transform=" matrix(1 0 0 1 0 0) " stroke-linecap="round" />
  <path d="M 335.436 291.309 c -1.324 0 -2.675 -0.3 -3.937 -0.927 l -35.31 -17.655 c -4.361 -2.189 -6.135 -7.486 -3.955 -11.847 c 2.18 -4.361 7.477 -6.144 11.847 -3.955 l 35.31 17.655 c 4.361 2.189 6.135 7.486 3.955 11.847 C 341.792 289.526 338.676 291.309 335.436 291.309" style="stroke: none; stroke-width: 1; stroke-dasharray: none; stroke-linecap: butt; stroke-linejoin: miter; stroke-miterlimit: 10; fill: #556080; fill-rule: nonzero; opacity: 1;" transform=" matrix(1 0 0 1 0 0) " stroke-linecap="round" />
  <path d="M 176.557 291.309 c -3.24 0 -6.356 -1.783 -7.91 -4.882 c -2.18 -4.361 -0.406 -9.657 3.955 -11.847 l 35.31 -17.655 c 4.37 -2.189 9.657 -0.406 11.847 3.955 c 2.18 4.361 0.406 9.657 -3.955 11.847 l -35.31 17.655 C 179.232 291.009 177.881 291.309 176.557 291.309" style="stroke: none; stroke-width: 1; stroke-dasharray: none; stroke-linecap: butt; stroke-linejoin: miter; stroke-miterlimit: 10; fill: #556080; fill-rule: nonzero; opacity: 1;" transform=" matrix(1 0 0 1 0 0) " stroke-linecap="round" />
  <path d="M 258.259 308.965 h -4.529 c -23.031 0 -41.869 -18.847 -41.869 -41.878 v -22.175 c 0 -23.031 18.838 -41.878 41.869 -41.878 h 4.529 c 23.031 0 41.878 18.847 41.878 41.878 v 22.175 C 300.137 290.118 281.29 308.965 258.259 308.965" style="stroke: none; stroke-width: 1; stroke-dasharray: none; stroke-linecap: butt; stroke-linejoin: miter; stroke-miterlimit: 10; fill: #556080; fill-rule: nonzero; opacity: 1;" transform=" matrix(1 0 0 1 0 0) " stroke-linecap="round" />
</g>
</svg>